<?xml version="1.0" standalone="no"?>
<!DOCTYPE svg PUBLIC "-//W3C//DTD SVG 20010904//EN"
 "http://www.w3.org/TR/2001/REC-SVG-20010904/DTD/svg10.dtd">
<svg version="1.0" xmlns="http://www.w3.org/2000/svg"
 width="225.000000pt" height="225.000000pt" viewBox="0 0 225.000000 225.000000"
 preserveAspectRatio="xMidYMid meet">
<metadata>
Created by potrace 1.11, written by Peter Selinger 2001-2013
</metadata>
<g transform="translate(0.000000,225.000000) scale(0.100000,-0.100000)"
fill="#000000" stroke="none">
<path d="M1485 1802 c57 -141 78 -187 87 -193 5 -3 16 -24 24 -45 l14 -39 -6
43 c-3 23 -2 42 3 42 4 0 7 20 5 45 -2 25 -1 45 3 45 10 0 50 -52 50 -65 0 -5
4 -16 9 -23 4 -7 5 -30 2 -50 l-5 -37 14 35 c7 19 14 29 14 21 1 -8 4 -12 7
-8 20 20 -159 242 -223 276 l-21 11 23 -58z"/>
<path d="M1442 1795 c-1 -11 3 -38 7 -60 7 -34 9 -35 9 -10 0 35 -15 101 -16
70z"/>
<path d="M1040 1583 c-22 -5 -20 -7 20 -19 25 -8 54 -14 65 -13 18 0 17 1 -5
15 l-25 15 25 -7 c14 -4 27 -10 30 -14 3 -4 18 -8 33 -8 20 0 27 5 25 17 -3
13 -17 16 -73 17 -39 1 -81 -1 -95 -3z m47 -9 c-3 -3 -12 -4 -19 -1 -8 3 -5 6
6 6 11 1 17 -2 13 -5z"/>
<path d="M1455 1558 c-5 -18 -8 -40 -7 -48 0 -8 -4 -18 -10 -21 -14 -9 -15
-71 -1 -76 12 -4 18 20 28 120 7 63 2 74 -10 25z"/>
<path d="M958 1563 c6 -2 18 -2 25 0 6 3 1 5 -13 5 -14 0 -19 -2 -12 -5z"/>
<path d="M490 1494 c0 -11 3 -24 7 -28 4 -4 8 -13 9 -19 3 -35 18 -76 30 -81
8 -3 14 -11 14 -18 0 -9 -3 -8 -10 2 -14 22 -12 1 5 -45 8 -24 14 -32 15 -20
0 11 7 29 15 39 14 19 15 18 11 -12 -2 -17 0 -29 4 -27 4 3 10 -4 13 -15 3
-13 1 -18 -6 -13 -7 4 -8 0 -4 -11 4 -10 7 -22 7 -27 0 -5 4 -9 9 -9 4 0 11
19 14 41 5 36 1 49 -30 95 -20 30 -38 52 -41 49 -3 -3 3 -15 14 -27 l19 -23
-23 19 c-12 11 -21 25 -18 32 5 13 -15 61 -41 99 -13 19 -13 19 -13 -1z m40
-79 c0 -5 -5 -3 -10 5 -5 8 -10 20 -10 25 0 6 5 3 10 -5 5 -8 10 -19 10 -25z
m33 -90 c-3 -9 -8 -14 -10 -11 -3 3 -2 9 2 15 9 16 15 13 8 -4z m48 -22 c13
-16 12 -17 -3 -4 -10 7 -18 15 -18 17 0 8 8 3 21 -13z"/>
<path d="M1493 1386 c-25 -9 -30 -15 -22 -28 6 -11 16 -15 27 -11 14 6 15 4 4
-9 -10 -13 -7 -27 22 -82 19 -37 35 -69 35 -71 -1 -19 14 -64 19 -61 4 2 8
-24 10 -57 2 -34 7 -66 12 -73 6 -6 7 -13 4 -16 -7 -7 16 -97 26 -103 5 -3 8
21 8 53 -1 33 2 65 7 71 4 7 3 17 -3 23 -7 7 -10 5 -9 -7 1 -10 -4 -20 -12
-23 -9 -3 -11 0 -7 7 12 19 15 125 4 138 -5 6 -15 10 -23 7 -20 -8 -25 64 -6
79 14 10 14 10 3 -5 -9 -11 -10 -18 -2 -23 5 -3 14 4 19 17 6 13 10 17 10 9 1
-8 3 -12 6 -9 15 14 -73 190 -93 187 -4 -1 -21 -7 -39 -13z m42 -27 c-7 -20
-8 -21 -17 -4 -8 12 -7 20 3 26 18 11 22 5 14 -22z m30 -55 c-8 -6 -14 -18
-12 -25 2 -8 2 -10 -1 -5 -2 4 -8 3 -12 -4 -5 -8 -9 -7 -13 5 -4 9 -3 13 3 10
10 -6 14 7 11 34 -2 8 2 10 10 5 9 -5 10 -2 6 12 -7 18 -6 18 8 -1 14 -18 14
-21 0 -31z m41 -62 c-3 -3 -6 1 -6 9 0 12 -2 12 -10 -1 -5 -8 -12 -11 -17 -7
-4 5 -2 12 5 16 7 4 10 16 7 27 -4 10 1 6 10 -9 9 -16 14 -31 11 -35z m24
-284 c0 -18 -2 -20 -9 -8 -6 8 -7 18 -5 22 9 14 14 9 14 -14z"/>
<path d="M1091 1346 c-14 -15 -20 -30 -16 -37 5 -7 4 -10 -3 -5 -6 3 -15 -2
-21 -11 -8 -15 -10 -10 -11 22 0 51 -17 35 -29 -28 -10 -53 -4 -57 29 -22 19
20 33 25 73 25 33 0 57 6 69 17 18 16 26 5 8 -13 -6 -6 0 -14 20 -21 l29 -11
-22 39 c-17 30 -26 37 -43 33 -22 -6 -42 12 -29 24 4 4 10 1 12 -5 3 -7 9 -13
15 -13 6 0 6 6 -2 15 -18 22 -54 18 -79 -9z m43 -13 c6 -15 -8 -32 -26 -33
-14 0 -19 22 -8 35 16 19 26 19 34 -2z"/>
<path d="M1100 1319 c0 -5 5 -7 10 -4 6 3 10 8 10 11 0 2 -4 4 -10 4 -5 0 -10
-5 -10 -11z"/>
<path d="M1822 1276 c-1 -25 -13 -76 -27 -113 -17 -46 -20 -62 -9 -48 15 19
16 18 9 -15 -4 -19 -12 -41 -17 -47 -17 -21 9 -45 35 -32 19 11 20 9 13 -21
-3 -18 -6 -36 -6 -41 0 -5 -8 -9 -17 -9 -11 0 -14 -3 -7 -8 6 -4 13 -14 16
-22 9 -25 38 90 44 175 4 49 2 103 -6 140 -17 82 -26 96 -28 41z m8 -193 c0
-20 -7 -31 -25 -40 -29 -13 -29 -13 -12 21 8 14 17 23 21 19 4 -4 4 0 0 10 -3
10 -1 17 5 17 6 0 11 -12 11 -27z"/>
<path d="M1610 1185 c0 -5 7 -23 15 -39 10 -18 13 -41 9 -61 -3 -19 -1 -35 5
-39 7 -5 11 9 11 43 0 28 -5 51 -10 51 -6 0 -8 12 -5 28 3 15 2 21 -1 13 -5
-11 -8 -11 -15 0 -5 8 -9 10 -9 4z"/>
<path d="M1038 1122 c-19 -22 -1 -24 39 -3 l38 20 -33 -2 c-19 -1 -38 -8 -44
-15z"/>
<path d="M1286 1092 c-4 -7 -26 -12 -50 -12 -25 0 -63 -10 -94 -26 -29 -14
-59 -23 -68 -20 -11 4 -13 2 -5 -11 7 -13 4 -25 -9 -44 -11 -15 -17 -34 -13
-47 5 -20 9 -17 42 26 l36 47 6 -58 c6 -52 19 -91 19 -56 0 8 7 25 16 37 l16
23 15 -20 c19 -27 31 -26 39 3 7 29 37 25 59 -7 14 -20 15 -19 15 21 0 24 -5
53 -11 64 -10 18 -9 20 7 14 34 -13 80 -19 65 -8 -7 5 -11 14 -7 20 3 6 -7 13
-25 17 -18 4 -34 16 -38 28 -5 14 -10 17 -15 9z m-17 -76 c7 -9 8 -17 2 -20
-15 -10 -40 5 -34 20 7 18 17 18 32 0z m-89 -20 c0 -20 -26 -40 -35 -26 -10
16 2 40 20 40 8 0 15 -6 15 -14z"/>
<path d="M880 1006 c0 -9 -8 -16 -19 -16 -10 0 -21 -9 -24 -20 -3 -11 -12 -20
-22 -20 -10 0 -15 -7 -13 -17 2 -13 -3 -17 -17 -15 -11 2 -23 8 -26 14 -3 5
-9 -1 -12 -14 -9 -33 -8 -48 3 -48 6 0 10 9 10 20 0 11 4 20 10 20 10 0 23
-40 18 -56 -5 -14 5 -18 30 -10 12 4 20 12 17 17 -4 5 -2 9 4 9 5 0 12 -4 16
-9 3 -6 14 -9 25 -8 29 2 29 72 0 89 -11 7 -20 17 -20 22 0 4 7 3 15 -4 8 -7
15 -11 16 -9 8 36 8 59 -1 64 -5 3 -10 -1 -10 -9z m0 -76 c0 -5 -5 -10 -11
-10 -5 0 -7 5 -4 10 3 6 8 10 11 10 2 0 4 -4 4 -10z m-33 -42 c-3 -8 -6 -5 -6
6 -1 11 2 17 5 13 3 -3 4 -12 1 -19z"/>
<path d="M1367 933 c-13 -13 -7 -53 8 -53 8 0 15 -5 15 -12 0 -6 2 -9 5 -7 8
9 -7 49 -17 43 -6 -4 -8 2 -3 15 6 21 4 26 -8 14z"/>
<path d="M711 814 c0 -11 3 -14 6 -6 3 7 2 16 -1 19 -3 4 -6 -2 -5 -13z"/>
<path d="M810 685 c0 -51 3 -59 40 -98 39 -41 41 -41 55 -23 8 11 15 15 15 10
0 -6 -5 -15 -12 -22 -9 -9 -9 -12 0 -12 6 0 11 -10 9 -22 -2 -20 4 -24 38 -28
l40 -6 -60 -19 c-33 -10 -65 -25 -71 -32 -10 -12 -14 -11 -27 1 -13 14 -16 14
-22 -2 -6 -15 -8 -15 -23 5 -22 28 -78 36 -76 11 1 -10 -1 -17 -5 -16 -18 2
-22 -4 -11 -17 7 -8 29 -15 50 -15 24 0 43 -7 55 -20 23 -25 110 -76 146 -85
27 -7 42 5 53 40 5 17 -3 23 -55 40 -34 10 -70 18 -80 18 -29 -3 -23 4 17 17
30 10 38 9 54 -5 18 -16 21 -16 49 5 17 12 31 17 31 11 0 -6 7 -11 15 -11 11
0 14 -10 12 -39 -1 -21 -5 -37 -9 -35 -3 2 -9 -18 -13 -46 -6 -40 -3 -58 15
-94 32 -67 44 -73 60 -28 10 33 10 43 -4 71 -23 44 -22 109 2 157 22 43 35 57
67 68 17 6 15 2 -7 -21 -55 -57 -70 -127 -43 -203 13 -37 13 -45 -1 -72 -8
-16 -14 -31 -12 -33 2 -2 30 1 63 6 173 28 154 29 167 -7 7 -20 16 -30 25 -27
7 3 19 1 26 -5 17 -14 67 -3 67 15 0 7 -10 27 -21 42 -32 43 -20 55 24 24 27
-19 36 -31 31 -45 -8 -28 23 -35 47 -9 14 15 17 26 10 38 -5 10 -19 43 -32 73
-13 30 -39 76 -56 102 -32 46 -44 86 -22 72 21 -13 -21 55 -47 75 -32 25 -47
26 -69 5 -14 -15 -14 -17 2 -30 17 -13 17 -13 1 -14 -13 0 -18 -8 -18 -28 0
-15 -5 -33 -12 -40 -9 -9 -6 -12 15 -12 15 0 27 5 27 11 0 8 5 8 15 -1 23 -19
18 -34 -15 -53 -32 -20 -62 -16 -92 11 -10 8 -18 12 -18 7 0 -4 -7 -2 -15 5
-8 7 -15 9 -15 4 0 -5 -5 -2 -10 6 -5 8 -9 29 -8 45 1 27 1 28 5 5 5 -28 21
-50 35 -50 5 0 4 9 -2 19 -21 41 -12 106 26 173 20 34 39 68 43 73 9 12 32 98
27 102 -2 2 -25 -7 -52 -21 -27 -13 -61 -28 -76 -31 -16 -4 -29 -15 -29 -24
-3 -41 -5 -46 -14 -46 -9 1 -51 17 -85 35 -9 4 -40 11 -69 15 -67 9 -108 26
-143 60 l-28 26 0 -56z m408 -63 c2 -18 8 -30 13 -27 5 4 9 1 9 -4 0 -6 -5
-11 -11 -11 -6 0 -8 -7 -5 -16 3 -9 1 -14 -5 -12 -6 2 -9 6 -7 9 2 3 -5 18
-15 33 -15 22 -16 31 -6 40 9 8 10 8 4 -3 -6 -10 -4 -12 4 -7 9 6 9 11 -1 24
-11 13 -11 14 2 10 8 -2 16 -19 18 -36z m-338 -37 c0 -5 5 -3 10 5 6 9 10 10
10 3 0 -25 -18 -21 -46 9 l-29 31 27 -19 c15 -10 28 -23 28 -29z m444 -171 c3
-8 2 -12 -4 -9 -6 3 -10 10 -10 16 0 14 7 11 14 -7z"/>
<path d="M1810 692 c-13 -20 -25 -43 -26 -51 -2 -8 -22 -33 -45 -57 -42 -43
-43 -44 -24 -62 18 -16 18 -16 5 1 -12 17 -10 22 26 52 45 38 56 30 23 -17
-23 -33 -23 -33 -1 -14 33 29 74 119 70 155 l-3 30 -25 -37z"/>
<path d="M1466 679 c-4 -24 -8 -57 -9 -74 -2 -16 -8 -29 -14 -28 -5 1 -22 -11
-37 -26 l-27 -28 24 -16 c24 -16 56 -20 117 -17 30 1 32 3 15 11 -17 8 -15 9
9 5 34 -5 56 2 56 16 0 5 -4 7 -9 3 -5 -3 -12 -1 -16 5 -8 13 18 13 31 0 5 -5
15 -6 24 0 20 12 -31 24 -70 17 -16 -4 -32 -2 -35 3 -4 6 1 7 12 3 16 -6 17
-5 3 12 -14 17 -13 18 5 11 33 -14 83 -17 90 -6 3 5 16 10 28 11 20 1 20 2 -3
9 -23 7 -23 8 10 10 l35 3 -40 7 -40 7 34 2 c32 1 33 2 16 14 -12 10 -14 16
-7 21 7 4 12 2 12 -5 0 -7 3 -9 6 -6 8 8 -14 37 -28 37 -5 0 -7 -4 -4 -9 3 -4
-26 -8 -63 -7 -63 1 -72 4 -94 30 l-25 28 -6 -43z m64 -39 c0 -5 -2 -10 -4
-10 -3 0 -8 5 -11 10 -3 6 -1 10 4 10 6 0 11 -4 11 -10z m40 0 c0 -5 -2 -10
-4 -10 -3 0 -8 5 -11 10 -3 6 -1 10 4 10 6 0 11 -4 11 -10z m-66 -63 c7 -6 6
-7 -4 -4 -8 2 -16 12 -17 23 -2 13 -1 15 4 4 3 -8 11 -19 17 -23z m76 22 c0
-8 6 -7 17 2 11 10 14 10 9 2 -5 -9 -1 -13 11 -14 12 -1 10 -3 -7 -8 -14 -4
-26 -4 -28 1 -2 4 -10 8 -18 8 -9 0 -12 5 -9 10 8 14 25 13 25 -1z m-142 -85
c-3 -14 -5 -12 -10 9 -3 19 -2 25 4 19 6 -6 8 -18 6 -28z"/>
<path d="M1689 693 c-13 -16 -12 -17 4 -4 16 13 21 21 13 21 -2 0 -10 -8 -17
-17z"/>
<path d="M1751 683 c-5 -10 -13 -17 -18 -16 -4 0 -7 -3 -6 -8 2 -4 -4 -6 -12
-3 -9 4 -15 0 -15 -10 0 -23 45 -1 59 30 12 28 7 32 -8 7z"/>
<path d="M1755 640 c-3 -5 -2 -10 4 -10 5 0 13 5 16 10 3 6 2 10 -4 10 -5 0
-13 -4 -16 -10z"/>
<path d="M845 530 c3 -5 8 -10 11 -10 2 0 4 5 4 10 0 6 -5 10 -11 10 -5 0 -7
-4 -4 -10z"/>
<path d="M1703 483 c-13 -8 -23 -19 -23 -24 0 -12 38 12 44 28 6 16 6 16 -21
-4z"/>
<path d="M1620 360 c0 -13 18 -22 24 -11 3 5 -1 11 -9 15 -8 3 -15 1 -15 -4z"/>
</g>
</svg>
