<?xml version="1.0" standalone="no"?>
<!DOCTYPE svg PUBLIC "-//W3C//DTD SVG 20010904//EN"
 "http://www.w3.org/TR/2001/REC-SVG-20010904/DTD/svg10.dtd">
<svg version="1.0" xmlns="http://www.w3.org/2000/svg"
 width="300.000000pt" height="300.000000pt" viewBox="0 0 300.000000 300.000000"
 preserveAspectRatio="xMidYMid meet">
<metadata>
Created by potrace 1.11, written by Peter Selinger 2001-2013
</metadata>
<g transform="translate(0.000000,300.000000) scale(0.100000,-0.100000)"
fill="#000000" stroke="none">
<path d="M75 2976 c29 -44 7 -61 -56 -41 -10 4 -19 2 -19 -4 0 -5 19 -14 43
-20 94 -22 114 -29 139 -45 14 -9 39 -18 56 -19 16 -1 28 -6 25 -11 -4 -5 6
-6 21 -2 14 3 26 3 26 -2 0 -13 70 -30 115 -27 22 1 46 -2 53 -8 8 -7 12 -5
12 8 0 12 5 15 16 11 10 -4 32 6 57 24 42 31 61 33 35 3 -19 -24 -98 -162 -98
-174 0 -5 -4 -9 -8 -9 -4 0 -16 -15 -27 -32 -12 -22 -14 -29 -4 -22 8 6 22 14
31 17 15 5 16 2 8 -18 -7 -19 -6 -25 5 -25 9 0 12 -6 9 -15 -5 -13 -8 -13 -21
0 -21 21 -32 18 -26 -6 4 -12 14 -24 25 -26 10 -3 18 -10 18 -15 0 -5 5 -6 10
-3 6 3 10 1 10 -4 0 -6 5 -11 10 -11 6 0 10 7 10 15 0 8 5 15 11 15 6 0 8 -10
5 -22 -3 -13 -3 -17 0 -10 3 6 11 12 18 12 6 0 18 10 26 21 37 53 103 130 107
125 3 -3 0 -12 -6 -20 -9 -11 -10 -20 -1 -35 12 -24 35 -29 26 -6 -3 10 1 14
12 13 38 -3 51 4 76 42 14 22 31 40 36 40 6 0 -5 -21 -24 -47 -40 -57 -98
-164 -93 -170 3 -2 31 22 63 53 89 86 205 184 239 201 l30 16 -34 -32 c-18
-17 -36 -31 -40 -31 -4 0 -32 -26 -63 -57 -57 -59 -128 -188 -128 -234 l0 -22
25 23 c13 13 27 31 31 42 3 10 11 18 18 18 16 0 56 42 56 61 1 8 7 25 16 39
l15 25 -7 -25 c-4 -14 -9 -32 -12 -40 -4 -11 1 -9 19 5 29 24 27 22 -71 -85
-43 -47 -98 -110 -121 -140 -70 -88 -57 -83 -156 -66 -135 22 -283 19 -267 -5
3 -6 14 -7 25 -4 11 4 44 3 75 -1 46 -5 57 -11 65 -30 8 -22 35 -51 85 -93 9
-8 31 -15 48 -16 18 -1 41 -7 53 -13 18 -10 26 -4 72 53 65 79 151 159 292
271 145 113 329 206 456 228 28 5 37 1 65 -30 36 -39 58 -85 58 -119 0 -18 -8
-26 -37 -35 -121 -39 -224 -86 -338 -154 -21 -13 -24 -13 -11 -2 22 18 27 73
8 85 -6 4 -15 25 -20 46 -10 50 -28 54 -83 18 -23 -15 -50 -32 -60 -38 -11 -5
-19 -13 -19 -17 0 -5 -7 -8 -15 -8 -8 0 -15 -4 -15 -10 0 -5 -6 -10 -12 -10
-7 0 -50 -35 -96 -78 -77 -73 -82 -80 -78 -112 3 -19 5 -38 5 -42 1 -5 12 -8
25 -8 13 0 29 -7 36 -15 7 -9 15 -13 17 -11 3 3 16 1 29 -4 14 -6 26 -6 29 0
4 6 13 10 21 10 11 0 7 -10 -14 -32 -17 -18 -65 -73 -107 -123 -43 -49 -81
-94 -85 -98 -7 -8 -198 16 -260 34 -59 16 -220 24 -220 10 0 -21 28 -27 268
-57 27 -3 42 -10 42 -20 0 -15 -16 -20 -22 -6 -1 4 -21 4 -43 1 l-40 -6 39 -2
c22 0 36 -4 32 -8 -4 -5 -66 -8 -136 -9 -102 0 -137 -4 -169 -19 -63 -28 -67
-56 -47 -305 14 -168 15 -225 6 -315 -28 -277 -24 -334 19 -221 29 78 35 157
21 286 -25 231 -13 396 31 436 10 9 19 26 19 36 0 30 21 43 70 43 25 0 48 5
52 10 5 6 8 5 8 -2 0 -7 7 -10 16 -6 10 4 15 1 14 -8 -7 -45 20 -55 38 -14 9
20 17 24 42 21 18 -2 35 -7 40 -12 9 -9 -30 -133 -83 -263 -20 -49 -24 -69
-16 -83 7 -13 7 -35 0 -67 -5 -26 -7 -58 -4 -70 4 -14 1 -26 -8 -32 -9 -6 -10
-12 -4 -17 6 -4 10 -13 11 -19 1 -7 2 -22 3 -34 0 -12 5 -17 12 -13 7 4 10 1
7 -7 -6 -17 22 -50 35 -42 6 3 7 1 3 -5 -3 -6 -2 -13 4 -17 5 -3 10 -13 10
-21 0 -16 17 -38 78 -99 31 -32 56 -46 92 -55 28 -7 50 -16 50 -21 0 -24 -172
-1 -225 30 -6 3 0 -3 13 -15 13 -12 60 -41 105 -65 75 -40 88 -44 154 -44 40
0 73 -1 73 -2 0 -1 -14 -10 -32 -19 -48 -25 -171 -30 -248 -10 -81 21 -206 93
-258 150 l-39 42 -39 -32 c-21 -18 -48 -35 -59 -36 -17 -3 -20 -10 -19 -48 4
-99 82 -205 170 -231 62 -18 181 -17 214 1 14 8 75 18 135 23 167 13 177 14
224 31 24 9 54 16 67 16 15 0 32 13 51 39 29 41 67 66 85 55 10 -6 4 -94 -9
-139 -5 -16 -4 -17 8 -5 44 46 57 93 36 127 -5 7 8 6 34 -5 39 -15 41 -17 35
-51 -7 -44 -20 -58 -41 -41 -20 17 -20 -4 1 -24 8 -9 20 -16 26 -16 15 0 47
42 48 63 0 19 16 23 22 5 3 -7 29 -10 79 -9 61 2 80 -1 98 -17 l24 -18 -37 4
c-30 4 -35 2 -30 -12 5 -12 2 -15 -12 -10 -11 3 -4 -3 14 -15 39 -25 41 -34 6
-21 -38 15 -152 22 -159 10 -3 -6 1 -10 10 -10 15 0 15 -1 1 -16 -9 -8 -16
-22 -16 -29 0 -8 -5 -17 -12 -21 -8 -5 -9 -2 -5 9 16 39 17 50 4 27 -8 -14
-18 -35 -21 -47 -6 -19 -4 -23 14 -23 26 0 90 -29 90 -41 0 -4 -16 -1 -36 7
-38 16 -86 16 -90 -1 -2 -5 14 -18 36 -28 22 -10 40 -23 40 -28 0 -12 -17 -12
-25 1 -8 13 -45 13 -45 0 0 -5 -4 -10 -10 -10 -5 0 -7 7 -3 16 4 12 2 15 -8
12 -8 -3 -13 -13 -11 -24 3 -26 -35 -48 -80 -45 -46 2 -49 -6 -8 -21 46 -16
77 -88 37 -88 -6 0 -37 -25 -68 -56 -61 -61 -81 -68 -207 -77 -59 -5 -67 -9
-59 -32 6 -13 85 -15 707 -15 431 0 700 4 700 9 0 6 -5 13 -11 17 -6 3 -9 14
-6 23 5 21 -11 44 -38 55 -11 4 -67 8 -125 8 -114 -1 -245 13 -180 18 19 2 71
4 115 5 92 1 162 12 188 28 21 14 117 166 117 185 0 7 -22 -9 -48 -36 -71 -73
-183 -122 -278 -122 -50 0 -121 30 -154 64 -13 15 -29 26 -35 26 -7 0 -17 11
-23 25 -6 14 -18 25 -26 25 -7 0 -37 -30 -66 -68 -63 -81 -102 -115 -155 -132
-22 -7 -67 -28 -99 -47 l-59 -34 -46 19 c-25 11 -63 23 -84 26 -20 4 -37 11
-37 16 0 14 61 23 73 11 13 -13 51 -15 43 -2 -3 5 9 11 27 15 31 6 187 82 197
96 3 4 20 15 39 25 19 9 56 38 83 63 26 25 51 42 55 39 3 -4 11 0 17 9 10 13
17 9 46 -27 57 -69 88 -99 100 -99 6 0 8 5 5 10 -3 6 4 10 15 10 53 0 149 34
203 71 31 22 57 37 57 32 -1 -10 -93 -83 -133 -105 l-32 -17 31 -1 c54 0 170
66 247 141 38 38 73 69 77 69 4 0 13 -7 20 -15 24 -29 132 -12 166 26 27 31
113 69 156 69 84 0 145 115 83 156 -16 10 -34 14 -50 10 -14 -4 -25 -2 -25 3
0 8 61 35 126 55 11 3 37 22 58 41 21 19 46 37 57 40 18 6 19 18 19 245 0 201
-2 239 -14 234 -18 -7 -27 -42 -12 -47 6 -2 -6 -9 -26 -16 -21 -7 -38 -17 -38
-22 0 -5 -4 -9 -9 -9 -9 0 -117 -62 -136 -78 -6 -5 -24 -12 -40 -16 l-30 -6
29 22 c16 13 66 45 110 71 45 27 71 46 59 44 -13 -3 -23 -1 -23 4 0 5 13 12
30 15 16 4 27 11 24 16 -11 17 -59 0 -148 -52 -110 -65 -122 -70 -107 -43 6
12 48 48 94 81 78 55 88 60 128 55 33 -3 52 1 77 16 l32 21 0 136 0 136 -38
-34 c-21 -19 -59 -49 -85 -67 -26 -17 -47 -33 -47 -35 0 -2 9 -6 19 -9 13 -3
35 10 67 39 27 23 51 41 53 38 2 -2 -26 -35 -62 -73 -37 -38 -67 -78 -67 -89
0 -10 -9 -31 -20 -44 -10 -14 -17 -28 -14 -30 10 -11 -52 -42 -88 -44 -43 -3
-43 11 0 19 16 3 43 18 61 32 28 24 31 33 31 80 0 75 12 101 82 172 34 34 58
66 54 70 -4 4 -14 0 -21 -10 -12 -16 -17 -13 -64 40 -28 32 -51 66 -51 75 0 9
23 42 51 72 28 31 48 56 44 56 -3 0 -25 -13 -48 -29 -115 -78 -287 -139 -417
-148 -52 -3 -102 -10 -110 -15 -10 -5 -2 -6 22 -2 20 3 44 1 54 -4 16 -9 15
-10 -6 -10 -28 1 -123 -12 -128 -16 -1 -2 12 -10 29 -19 l32 -15 -54 -10
c-107 -21 -212 -24 -271 -9 -50 13 -114 14 -126 2 -2 -2 -31 15 -64 38 -34 23
-75 52 -92 63 -49 34 -198 193 -190 205 3 6 12 8 20 5 11 -4 11 0 -2 19 -9 14
-21 22 -27 18 -6 -4 -7 -1 -3 6 5 7 0 21 -10 32 -25 27 -10 35 31 16 26 -13
33 -13 29 -3 -6 16 11 29 42 33 11 2 83 -24 159 -57 137 -60 262 -99 465 -146
57 -13 106 -24 108 -24 2 0 0 -4 -3 -10 -12 -19 188 -11 287 10 50 12 94 23
98 25 9 6 -167 187 -304 313 -55 51 -95 92 -90 92 12 0 52 -26 85 -57 l26 -24
-9 62 c-4 34 -15 85 -23 113 -13 42 -14 68 -4 156 7 69 16 110 26 120 14 13
15 12 9 -10 -4 -14 -10 -68 -13 -120 -5 -85 -3 -100 16 -135 11 -22 21 -44 21
-49 0 -15 83 -156 92 -156 5 0 24 -16 44 -35 19 -19 32 -35 29 -35 -3 0 6 -12
20 -27 14 -15 25 -31 25 -35 0 -4 8 -9 18 -12 11 -4 25 -17 32 -31 7 -14 23
-28 34 -31 12 -4 27 -14 34 -23 8 -9 11 -11 8 -4 -4 7 4 13 21 15 24 3 28 7
25 30 -4 30 10 42 37 33 23 -7 35 -46 18 -58 -12 -9 3 -5 38 9 17 7 21 -11 4
-22 -8 -4 -7 -9 2 -15 10 -6 11 -9 2 -9 -7 0 -13 -5 -13 -11 0 -5 4 -8 8 -5 8
5 10 -8 15 -74 1 -16 5 -30 10 -30 4 0 7 -5 7 -11 0 -6 -7 -9 -15 -5 -8 3 -15
4 -15 1 0 -7 32 -35 41 -35 5 0 9 249 9 630 l0 630 -1470 0 -1470 0 15 -24z
m245 -81 c16 -19 6 -45 -18 -45 -25 0 -46 25 -38 45 7 19 40 19 56 0z m440
-212 c0 -5 -8 -17 -17 -28 -14 -18 -15 -18 -9 -2 3 10 6 23 6 28 0 5 5 9 10 9
6 0 10 -3 10 -7z m360 -47 c0 -2 -8 -10 -17 -17 -16 -13 -17 -12 -4 4 13 16
21 21 21 13z m-137 -41 c-3 -9 -8 -14 -10 -11 -3 3 -2 9 2 15 9 16 15 13 8 -4z
m-433 -15 c0 -5 -5 -10 -11 -10 -5 0 -7 5 -4 10 3 6 8 10 11 10 2 0 4 -4 4
-10z m40 -4 c0 -3 -4 -8 -10 -11 -5 -3 -10 -1 -10 4 0 6 5 11 10 11 6 0 10 -2
10 -4z m2217 -363 c28 -36 -24 -65 -77 -43 -31 13 -39 37 -17 59 15 16 77 6
94 -16z m-1467 -218 c0 -5 -20 -40 -44 -76 -109 -167 -184 -304 -172 -316 2
-2 16 3 30 12 35 23 53 14 62 -30 4 -21 10 -32 14 -26 4 7 11 1 19 -16 10 -22
14 -24 22 -12 5 7 9 24 9 37 0 28 7 28 52 -3 20 -14 43 -25 50 -25 7 0 2 7
-10 16 -25 17 -46 60 -36 75 3 5 18 -4 34 -21 15 -16 38 -30 50 -30 25 0 90
36 90 50 0 5 3 15 6 23 3 10 -2 18 -15 22 -27 8 -27 35 -1 42 11 3 20 14 20
24 0 26 18 24 44 -4 39 -42 27 -106 -31 -169 l-25 -26 26 2 c36 4 117 69 157
126 15 23 16 23 45 5 16 -10 50 -41 77 -69 63 -68 64 -103 4 -230 -24 -50 -50
-98 -58 -106 -8 -8 -26 -31 -39 -50 -14 -19 -42 -53 -62 -75 -21 -22 -38 -43
-38 -47 0 -4 -13 -14 -29 -22 -16 -9 -51 -36 -78 -60 -69 -64 -83 -76 -85 -75
-13 3 -38 -16 -34 -27 9 -22 -133 -48 -269 -48 -159 0 -220 18 -284 82 -49 50
-114 170 -113 212 0 14 -7 33 -16 43 -8 9 -12 20 -9 23 4 4 9 -1 13 -10 3 -9
12 -16 20 -16 16 0 19 16 4 25 -5 3 -10 18 -10 33 l0 27 18 -22 c9 -13 31 -25
48 -29 26 -5 32 -2 42 21 16 34 15 43 -3 61 -17 17 -20 54 -5 54 6 0 10 -4 10
-10 0 -5 7 -10 15 -10 8 0 17 -14 21 -35 11 -60 27 -41 21 25 -5 59 -5 59 16
49 15 -8 11 0 -13 26 -31 33 -32 36 -12 30 21 -6 23 -5 13 13 -14 27 -14 35 1
26 6 -4 8 -3 5 4 -10 15 -95 42 -133 42 -65 0 -66 4 -43 127 12 59 18 62 114
51 34 -4 67 -2 78 4 10 5 49 41 85 80 37 38 77 74 90 79 13 5 21 13 18 17 -2
4 4 9 16 9 11 1 30 13 42 26 13 14 34 28 47 32 23 7 87 55 74 55 -3 0 -3 4 0
10 7 11 45 -9 45 -25z m178 -60 c-3 -3 -9 2 -12 12 -6 14 -5 15 5 6 7 -7 10
-15 7 -18z m-805 -142 c-7 -2 -21 -2 -30 0 -10 3 -4 5 12 5 17 0 24 -2 18 -5z
m947 -99 c0 -41 -9 -66 -22 -58 -5 3 -19 -2 -30 -13 -20 -18 -21 -18 -10 2 5
11 13 46 17 78 7 56 8 57 26 41 11 -10 19 -30 19 -50z m270 -97 c0 -5 -4 -5
-10 -2 -5 3 -10 14 -10 23 0 15 2 15 10 2 5 -8 10 -19 10 -23z m400 -177 c-8
-5 -24 -9 -35 -9 l-20 0 20 9 c11 5 27 9 35 9 13 1 13 0 0 -9z m175 -27 c28
-13 64 -36 80 -51 17 -15 29 -26 27 -26 -2 1 -18 -2 -37 -6 -26 -6 -32 -5 -28
6 3 8 1 14 -5 14 -5 0 -13 -10 -17 -22 -8 -22 -8 -22 -12 5 -3 18 -10 27 -23
27 -10 0 -20 5 -22 11 -2 6 -28 -12 -58 -40 -30 -28 -58 -51 -62 -51 -9 0 1
27 36 100 28 59 32 74 12 48 -10 -13 -19 -15 -42 -8 -18 5 -23 9 -11 10 9 2
21 3 26 4 5 0 13 5 17 9 11 11 60 -1 119 -30z m-135 -7 c0 -3 -4 -8 -10 -11
-5 -3 -10 -1 -10 4 0 6 5 11 10 11 6 0 10 -2 10 -4z m-137 -196 c-2 -2 -8 1
-12 9 -6 10 -10 9 -15 -4 -3 -9 -12 -15 -20 -12 -7 3 -19 0 -25 -6 -14 -14
-14 -2 0 25 8 15 8 22 -1 28 -9 5 -5 20 14 56 14 27 26 52 26 57 0 4 6 14 13
21 10 11 13 -4 18 -78 4 -50 5 -93 2 -96z m-218 -61 c43 -16 55 -26 64 -51 13
-36 0 -61 -21 -40 -7 7 -20 12 -29 12 -10 0 -24 7 -33 15 -28 29 -149 74 -168
64 -10 -5 -18 -14 -18 -19 0 -6 -5 -10 -10 -10 -28 0 -70 -62 -71 -107 0 -15
-4 -36 -8 -47 -7 -17 -9 -16 -38 8 -17 14 -35 26 -40 26 -5 0 -22 -14 -39 -31
-28 -30 -42 -38 -92 -53 -22 -7 -22 -6 9 46 53 88 177 187 263 209 47 12 171
0 231 -22z m410 -20 c15 -7 6 -8 -32 -6 -29 2 -50 0 -47 -5 3 -4 16 -8 30 -8
14 0 44 -4 67 -9 23 -6 60 -13 82 -16 34 -6 37 -8 21 -17 -14 -8 -48 -8 -115
0 -53 7 -139 15 -191 19 -87 6 -91 7 -51 14 56 11 64 19 20 20 -28 0 -30 2
-14 9 27 12 205 11 230 -1z m204 -25 c8 -7 -84 -2 -109 6 -15 5 1 6 40 3 36
-3 67 -7 69 -9z m-1035 -224 c-12 -5 -25 -14 -30 -21 -5 -8 -2 -11 7 -7 9 4
28 -8 47 -31 90 -102 106 -139 55 -126 -48 12 -166 18 -160 8 3 -5 -7 -10 -23
-11 -39 -3 -80 -19 -80 -32 0 -5 -5 -10 -11 -10 -6 0 -9 8 -7 18 2 10 21 23
52 32 47 15 49 18 73 80 26 69 57 110 82 109 11 0 9 -3 -5 -9z m266 -123 c0
-1 -24 -25 -52 -52 l-53 -50 50 53 c46 48 55 57 55 49z m-240 -177 c18 -12 2
-12 -25 0 -13 6 -15 9 -5 9 8 0 22 -4 30 -9z m784 -77 c3 -8 -3 -14 -17 -14
-51 -3 -73 -7 -91 -14 -14 -6 -17 -5 -12 3 5 9 -37 12 -168 12 -155 0 -197 5
-181 22 3 3 109 5 235 4 177 0 231 -3 234 -13z"/>
<path d="M831 1184 c-19 -13 -29 -24 -23 -24 6 0 24 11 39 25 35 31 28 31 -16
-1z"/>
<path d="M1267 1161 c-122 -32 -160 -85 -95 -134 87 -66 210 -52 282 33 44 53
29 88 -49 109 -51 14 -56 14 -138 -8z m28 -27 c-27 -21 -118 -64 -124 -59 -10
11 36 47 78 60 60 18 70 18 46 -1z"/>
<path d="M766 1115 c-3 -8 -1 -15 4 -15 6 0 10 7 10 15 0 8 -2 15 -4 15 -2 0
-6 -7 -10 -15z"/>
<path d="M2280 1100 c8 -5 22 -9 30 -9 10 0 8 3 -5 9 -27 12 -43 12 -25 0z"/>
<path d="M680 2579 c-11 -19 -10 -20 10 -9 11 6 18 15 15 21 -9 13 -13 11 -25
-12z"/>
<path d="M310 2220 c0 -5 5 -10 10 -10 6 0 10 5 10 10 0 6 -4 10 -10 10 -5 0
-10 -4 -10 -10z"/>
<path d="M365 2080 c11 -5 27 -9 35 -9 13 -1 13 0 0 9 -8 5 -24 9 -35 9 l-20
0 20 -9z"/>
<path d="M2930 1851 c0 -6 4 -12 9 -15 5 -3 7 -16 4 -29 -4 -19 -3 -20 7 -5 8
13 8 23 0 38 -11 21 -20 26 -20 11z"/>
<path d="M395 1810 c-4 -6 -3 -10 2 -9 4 1 16 -1 26 -5 9 -5 25 -5 35 -1 16 7
15 8 -3 15 -28 12 -53 12 -60 0z"/>
<path d="M2740 1310 c-8 -5 -10 -10 -5 -10 6 0 17 5 25 10 8 5 11 10 5 10 -5
0 -17 -5 -25 -10z"/>
<path d="M531 1284 c0 -11 3 -14 6 -6 3 7 2 16 -1 19 -3 4 -6 -2 -5 -13z"/>
<path d="M113 922 c14 -15 15 -21 5 -25 -7 -2 -9 -8 -5 -13 4 -5 12 -2 17 6
14 22 12 28 -12 41 -23 12 -23 12 -5 -9z"/>
<path d="M4 892 c1 -22 7 -46 15 -56 12 -14 12 -16 -3 -10 -15 6 -16 -19 -16
-287 l0 -294 23 45 c64 124 155 220 253 265 l61 28 -28 41 c-37 55 -68 136
-70 183 -4 62 -69 108 -101 71 -16 -19 -17 -19 -59 4 -24 13 -49 29 -57 36
-19 17 -19 17 -18 -26z m171 -237 c0 -15 -8 -21 -29 -23 -33 -4 -51 10 -42 33
9 25 71 16 71 -10z"/>
<path d="M2947 804 c-37 -20 -30 -38 16 -42 35 -3 37 -2 37 27 0 35 -11 38
-53 15z"/>
<path d="M1301 644 c0 -11 3 -14 6 -6 3 7 2 16 -1 19 -3 4 -6 -2 -5 -13z"/>
<path d="M1090 593 c0 -13 5 -23 10 -23 13 0 13 11 0 30 -8 12 -10 11 -10 -7z"/>
<path d="M904 569 c-3 -5 25 -9 62 -9 37 0 65 3 61 6 -10 10 -117 12 -123 3z"/>
<path d="M605 526 c-93 -14 -128 -32 -119 -60 5 -15 3 -18 -10 -13 -19 8 -21
-4 -3 -22 9 -11 9 -13 0 -7 -21 12 -15 -9 8 -30 21 -19 22 -19 15 4 -9 28 5
29 22 1 7 -12 16 -19 18 -16 3 3 19 1 36 -4 22 -6 40 -4 63 7 18 8 43 16 56
16 13 1 36 10 51 21 17 11 36 16 48 12 12 -4 20 -2 20 5 0 7 7 10 15 6 8 -3
15 -1 15 3 0 14 29 22 56 15 13 -3 24 -12 24 -20 0 -8 5 -14 10 -14 6 0 10 -6
10 -14 0 -8 11 -17 25 -20 14 -4 25 -11 25 -16 0 -6 8 -10 18 -10 12 0 9 5
-12 19 -40 27 -48 44 -31 67 13 18 16 18 44 2 33 -18 50 -12 23 9 -15 13 -15
13 8 7 l25 -6 -26 20 c-43 35 -302 57 -434 38z m90 -62 c0 -10 -8 -20 -18 -22
-22 -4 -35 27 -16 39 20 12 34 5 34 -17z"/>
<path d="M2674 494 c-26 -14 -54 -34 -62 -45 -7 -10 -28 -27 -45 -36 -20 -11
-27 -18 -17 -20 21 -4 160 70 189 101 23 25 24 26 4 26 -11 0 -42 -12 -69 -26z"/>
<path d="M2827 471 c-16 -10 -25 -22 -22 -30 4 -11 2 -11 -9 -2 -7 6 -22 9
-32 5 -11 -3 -9 1 6 10 14 8 21 15 16 16 -19 0 -76 -42 -70 -52 4 -7 2 -8 -4
-4 -6 3 -16 -2 -22 -11 -8 -13 -13 -15 -17 -5 -4 10 -8 10 -19 1 -8 -6 -14 -8
-14 -4 0 5 -9 0 -20 -10 -11 -10 -34 -18 -52 -17 -18 1 -41 -1 -52 -4 -15 -5
-16 -8 -5 -16 10 -7 9 -8 -6 -3 -11 4 -33 8 -49 11 l-30 4 23 -16 22 -16 -29
-21 c-16 -12 -40 -35 -55 -52 -14 -16 -28 -27 -31 -24 -4 3 15 28 41 54 46 45
42 54 -4 12 -30 -26 -34 -20 -15 23 19 43 24 80 11 80 -5 0 -9 -10 -9 -22 0
-13 -14 -54 -30 -93 -17 -38 -30 -73 -30 -77 0 -14 29 -9 72 12 23 11 48 20
56 20 8 0 12 6 8 15 -10 27 5 44 56 61 27 9 51 14 54 11 12 -11 -11 -37 -43
-48 -19 -6 -32 -13 -30 -15 3 -4 44 8 130 39 15 5 25 12 22 15 -3 3 12 17 33
31 20 14 46 33 56 43 21 19 29 22 39 12 10 -10 -12 -44 -28 -44 -8 0 -15 -4
-15 -9 0 -5 -21 -21 -46 -36 -48 -28 -54 -42 -10 -26 51 20 25 3 -56 -37 -151
-73 -172 -82 -184 -82 -7 0 -14 -3 -16 -7 -1 -5 -20 -17 -42 -28 -45 -23 -62
-46 -71 -97 l-7 -38 351 0 351 0 -1 238 c0 223 -1 236 -17 217 -9 -11 -30 -26
-47 -33 -29 -13 -29 -13 8 21 40 37 52 63 15 31 -13 -10 -25 -22 -28 -25 -13
-14 -90 -38 -95 -29 -3 6 4 11 17 11 17 1 18 3 6 6 -21 5 -23 14 -6 31 19 19
6 20 -25 3z m147 -126 c-20 -31 -163 -155 -178 -155 -6 0 34 43 89 95 55 51
101 92 103 90 2 -2 -4 -15 -14 -30z"/>
<path d="M850 410 c0 -12 26 -19 39 -10 9 5 4 9 -13 12 -14 3 -26 2 -26 -2z"/>
<path d="M910 410 c0 -5 5 -10 10 -10 6 0 10 5 10 10 0 6 -4 10 -10 10 -5 0
-10 -4 -10 -10z"/>
<path d="M1047 370 c-21 -28 -34 -50 -29 -50 10 0 76 89 70 95 -2 3 -21 -18
-41 -45z"/>
<path d="M2400 370 c0 -5 5 -10 10 -10 6 0 10 5 10 10 0 6 -4 10 -10 10 -5 0
-10 -4 -10 -10z"/>
<path d="M140 323 c-13 -9 -32 -17 -41 -18 -24 -2 -60 -35 -52 -48 3 -5 1 -7
-4 -4 -12 8 -43 -34 -43 -57 0 -24 18 -28 52 -12 38 20 104 20 140 2 19 -10
29 -11 37 -3 8 8 11 8 11 -2 0 -7 4 -10 10 -6 5 3 26 -1 46 -10 42 -17 74 -20
74 -5 0 6 6 10 13 9 37 -5 48 2 44 26 -4 29 -33 56 -84 77 -107 44 -146 45
-228 9 -32 -14 -42 -15 -42 -5 0 7 4 11 8 8 10 -6 99 37 99 48 0 12 -13 10
-40 -9z"/>
<path d="M960 260 c0 -5 7 -10 16 -10 8 0 12 5 9 10 -3 6 -10 10 -16 10 -5 0
-9 -4 -9 -10z"/>
<path d="M904 244 c-18 -14 -18 -15 6 -8 31 8 50 24 29 24 -8 0 -24 -7 -35
-16z"/>
<path d="M1955 230 c3 -5 12 -10 20 -10 8 0 17 5 20 10 4 6 -5 10 -20 10 -15
0 -24 -4 -20 -10z"/>
<path d="M867 170 c-5 -19 -30 -26 -79 -22 -10 1 -18 -3 -18 -8 0 -6 -5 -10
-10 -10 -18 0 -160 -111 -160 -125 0 -3 38 -5 83 -5 69 0 87 3 100 18 10 10
17 23 17 28 0 5 21 36 45 68 25 33 45 63 45 68 0 16 -18 7 -23 -12z"/>
<path d="M32 163 l-32 -4 0 -80 0 -79 118 0 c159 0 252 10 252 26 0 15 -102
104 -119 104 -6 0 -11 4 -11 9 0 21 -119 35 -208 24z"/>
</g>
</svg>
